<svg width="112" height="112" viewBox="0 0 112 112" fill="none" xmlns="http://www.w3.org/2000/svg">
<g filter="url(#filter0_f_164_1115)">
<circle cx="56" cy="56" r="48" stroke="white" stroke-width="4"/>
<path d="M56 53L56 27" stroke="white" stroke-width="4" stroke-linecap="round"/>
<path fill-rule="evenodd" clip-rule="evenodd" d="M45.8056 35.1921C45.8056 33.7141 44.3114 32.7139 43.0196 33.4318C35.4164 37.6574 30.2715 45.7711 30.2715 55.0865C30.2715 68.7596 41.3557 79.8438 55.0288 79.8438C68.7018 79.8438 79.786 68.7596 79.786 55.0865C79.786 45.3467 74.1617 36.9205 65.9836 32.8787C64.6996 32.2441 63.2814 33.2404 63.2814 34.6726V34.6726C63.2814 35.4995 63.777 36.2391 64.5122 36.6174C71.2069 40.0618 75.786 47.0394 75.786 55.0865C75.786 66.5505 66.4927 75.8438 55.0288 75.8438C43.5648 75.8438 34.2715 66.5505 34.2715 55.0865C34.2715 47.397 38.4527 40.6841 44.6656 37.0972C45.352 36.701 45.8056 35.9846 45.8056 35.1921V35.1921Z" fill="white"/>
</g>
<circle cx="57" cy="56" r="48" stroke="white" stroke-opacity="0.3" stroke-width="4"/>
<path d="M56 53L56 27" stroke="white" stroke-opacity="0.3" stroke-width="4" stroke-linecap="round"/>
<path fill-rule="evenodd" clip-rule="evenodd" d="M46.8056 35.1921C46.8056 33.7141 45.3114 32.7139 44.0196 33.4318C36.4164 37.6574 31.2715 45.7711 31.2715 55.0865C31.2715 68.7596 42.3557 79.8438 56.0288 79.8438C69.7018 79.8438 80.786 68.7596 80.786 55.0865C80.786 45.3467 75.1617 36.9205 66.9836 32.8787C65.6996 32.2441 64.2814 33.2404 64.2814 34.6726V34.6726C64.2814 35.4995 64.777 36.2391 65.5122 36.6174C72.2069 40.0618 76.786 47.0394 76.786 55.0865C76.786 66.5505 67.4927 75.8438 56.0288 75.8438C44.5648 75.8438 35.2715 66.5505 35.2715 55.0865C35.2715 47.397 39.4527 40.6841 45.6656 37.0972C46.352 36.701 46.8056 35.9846 46.8056 35.1921V35.1921Z" fill="white" fill-opacity="0.3"/>
<g filter="url(#filter1_f_164_1115)">
<circle cx="56" cy="56" r="48" stroke="white" stroke-width="4"/>
<path d="M56 53L56 27" stroke="white" stroke-width="4" stroke-linecap="round"/>
<path fill-rule="evenodd" clip-rule="evenodd" d="M45.8056 35.1921C45.8056 33.7141 44.3114 32.7139 43.0196 33.4318C35.4164 37.6574 30.2715 45.7711 30.2715 55.0865C30.2715 68.7596 41.3557 79.8438 55.0288 79.8438C68.7018 79.8438 79.786 68.7596 79.786 55.0865C79.786 45.3467 74.1617 36.9205 65.9836 32.8787C64.6996 32.2441 63.2814 33.2404 63.2814 34.6726V34.6726C63.2814 35.4995 63.777 36.2391 64.5122 36.6174C71.2069 40.0618 75.786 47.0394 75.786 55.0865C75.786 66.5505 66.4927 75.8438 55.0288 75.8438C43.5648 75.8438 34.2715 66.5505 34.2715 55.0865C34.2715 47.397 38.4527 40.6841 44.6656 37.0972C45.352 36.701 45.8056 35.9846 45.8056 35.1921V35.1921Z" fill="white"/>
</g>
<circle cx="57" cy="56" r="48" stroke="white" stroke-opacity="0.3" stroke-width="4"/>
<path d="M56 53L56 27" stroke="white" stroke-opacity="0.3" stroke-width="4" stroke-linecap="round"/>
<path fill-rule="evenodd" clip-rule="evenodd" d="M46.8056 35.1921C46.8056 33.7141 45.3114 32.7139 44.0196 33.4318C36.4164 37.6574 31.2715 45.7711 31.2715 55.0865C31.2715 68.7596 42.3557 79.8438 56.0288 79.8438C69.7018 79.8438 80.786 68.7596 80.786 55.0865C80.786 45.3467 75.1617 36.9205 66.9836 32.8787C65.6996 32.2441 64.2814 33.2404 64.2814 34.6726V34.6726C64.2814 35.4995 64.777 36.2391 65.5122 36.6174C72.2069 40.0618 76.786 47.0394 76.786 55.0865C76.786 66.5505 67.4927 75.8438 56.0288 75.8438C44.5648 75.8438 35.2715 66.5505 35.2715 55.0865C35.2715 47.397 39.4527 40.6841 45.6656 37.0972C46.352 36.701 46.8056 35.9846 46.8056 35.1921V35.1921Z" fill="white" fill-opacity="0.3"/>
<defs>
<filter id="filter0_f_164_1115" x="0" y="0" width="112" height="112" filterUnits="userSpaceOnUse" color-interpolation-filters="sRGB">
<feFlood flood-opacity="0" result="BackgroundImageFix"/>
<feBlend mode="normal" in="SourceGraphic" in2="BackgroundImageFix" result="shape"/>
<feGaussianBlur stdDeviation="3" result="effect1_foregroundBlur_164_1115"/>
</filter>
<filter id="filter1_f_164_1115" x="0" y="0" width="112" height="112" filterUnits="userSpaceOnUse" color-interpolation-filters="sRGB">
<feFlood flood-opacity="0" result="BackgroundImageFix"/>
<feBlend mode="normal" in="SourceGraphic" in2="BackgroundImageFix" result="shape"/>
<feGaussianBlur stdDeviation="3" result="effect1_foregroundBlur_164_1115"/>
</filter>
</defs>
</svg>
